<svg xmlns="http://www.w3.org/2000/svg" width="1600" height="1000" viewBox="0 0 1600 1000"><defs><linearGradient id="b" x2="0" y2="1"><stop stop-color="#191c20"/><stop offset="1" stop-color="#080a0c"/></linearGradient><linearGradient id="g" x2="1"><stop stop-color="#735734"/><stop offset=".5" stop-color="#e5c980"/><stop offset="1" stop-color="#735734"/></linearGradient><radialGradient id="r"><stop stop-color="#9e8048" stop-opacity=".17"/><stop offset="1" stop-color="#101214" stop-opacity="0"/></radialGradient></defs><rect width="1600" height="1000" fill="url(#b)"/><ellipse cx="1130" cy="450" rx="560" ry="440" fill="url(#r)"/><path d="M0 100H1600" stroke="url(#g)" stroke-width="2"/><text x="52" y="42" fill="#d9b56d" font-family="Arial" font-size="14" letter-spacing="3">ABOVE THE HILL / WM PRO</text><text x="52" y="76" fill="#f0e9dc" font-family="Arial" font-size="31" font-weight="700">A guest sees the real product, safely.</text><text x="1544" y="43" text-anchor="end" fill="#d6b46d" font-family="Arial" font-size="13" letter-spacing="2">GARDEN 18 · PROPOSED ARRIVAL</text><text x="52" y="141" fill="#aaa79e" font-family="Arial" font-size="15">No false live badge, no Founder data, no dead-end signup. Let a new trader reach one useful market reading.</text>
<rect x="52" y="176" width="1496" height="710" rx="24" fill="#0c1014" stroke="#40382d"/><rect x="80" y="208" width="1440" height="58" rx="14" fill="#151a1e"/><text x="110" y="245" fill="#e8dfcd" font-family="Arial" font-size="17" font-weight="700">WM PRO</text><text x="1280" y="245" fill="#a4aaa7" font-family="Arial" font-size="13">GUEST SESSION · NO BROKER CONNECTED</text>
<text x="110" y="326" fill="#dfc27e" font-family="Arial" font-size="13" letter-spacing="2">YOUR MARKET SANCTUARY</text><text x="110" y="377" fill="#f3eee3" font-family="Arial" font-size="42" font-weight="700">Read the market before</text><text x="110" y="426" fill="#f3eee3" font-family="Arial" font-size="42" font-weight="700">you risk a dollar.</text><text x="110" y="473" fill="#b1b1aa" font-family="Arial" font-size="17">Explore one real chart, inspect a market sense, and see exactly</text><text x="110" y="501" fill="#b1b1aa" font-family="Arial" font-size="17">what is live, estimated, delayed, or unavailable.</text><rect x="110" y="546" width="240" height="58" rx="14" fill="#775c35"/><text x="230" y="582" text-anchor="middle" fill="#fff0c5" font-family="Arial" font-size="16" font-weight="700">ENTER AS GUEST</text><text x="378" y="582" fill="#a4aaa3" font-family="Arial" font-size="14">No broker connection required</text>
<rect x="110" y="638" width="418" height="158" rx="16" fill="#12181b" stroke="#30383a"/><text x="138" y="678" fill="#d8b66e" font-family="Arial" font-size="14" font-weight="700">A REAL FIRST SESSION</text><text x="138" y="714" fill="#e0ddd5" font-family="Arial" font-size="15">1 · Choose a market</text><text x="138" y="746" fill="#e0ddd5" font-family="Arial" font-size="15">2 · Open one clear starter View</text><text x="138" y="778" fill="#e0ddd5" font-family="Arial" font-size="15">3 · Inspect evidence and learn what is missing</text>
<rect x="660" y="302" width="820" height="500" rx="19" fill="#0d1216" stroke="#354047"/><text x="692" y="343" fill="#c7c3b9" font-family="Arial" font-size="14">NQ1! · 5M · GUEST SAMPLE</text><rect x="1200" y="319" width="232" height="32" rx="10" fill="#242118" stroke="#665634"/><text x="1316" y="340" text-anchor="middle" fill="#e1c47d" font-family="Arial" font-size="12">HISTORICAL SAMPLE · NOT LIVE</text>
<g stroke="#273039"><path d="M692 410H1447M692 482H1447M692 554H1447M692 626H1447M692 698H1447M692 770H1447M770 374V770M870 374V770M970 374V770M1070 374V770M1170 374V770M1270 374V770M1370 374V770"/></g><g stroke-width="3"><path d="M780 500V578" stroke="#6caf90"/><rect x="772" y="516" width="16" height="42" fill="#398969"/><path d="M880 464V540" stroke="#6caf90"/><rect x="872" y="480" width="16" height="43" fill="#398969"/><path d="M980 450V525" stroke="#c77365"/><rect x="972" y="463" width="16" height="37" fill="#a95d53"/><path d="M1080 420V506" stroke="#6caf90"/><rect x="1072" y="437" width="16" height="50" fill="#398969"/><path d="M1180 428V515" stroke="#c77365"/><rect x="1172" y="451" width="16" height="42" fill="#a95d53"/><path d="M1280 395V474" stroke="#6caf90"/><rect x="1272" y="411" width="16" height="43" fill="#398969"/><path d="M1380 386V463" stroke="#6caf90"/><rect x="1372" y="404" width="16" height="36" fill="#398969"/></g><path d="M700 525H1445" stroke="#d2b36c" stroke-dasharray="6 6"/><text x="1434" y="516" text-anchor="end" fill="#e4cb8e" font-family="Arial" font-size="12">VALUE · SAMPLE ONLY</text>
<rect x="692" y="820" width="755" height="42" rx="10" fill="#181b1b" stroke="#494333"/><text x="1068" y="847" text-anchor="middle" fill="#c6b789" font-family="Arial" font-size="13">Guest mode · sample candles · no account data · no real order submission</text><text x="52" y="956" fill="#d0ad69" font-family="Arial" font-size="13" letter-spacing="1">WELCOME WITH WARMTH · LABEL REALITY · PROTECT IDENTITY · LET THE GUEST EXPERIENCE THE CHART</text></svg>
