<svg xmlns="http://www.w3.org/2000/svg" width="1600" height="1000" viewBox="0 0 1600 1000">
<defs><linearGradient id="ground" x2="0" y2="1"><stop stop-color="#18202a"/><stop offset=".42" stop-color="#0c1119"/><stop offset="1" stop-color="#080b10"/></linearGradient><linearGradient id="header" x2="1" y2="0"><stop stop-color="#25251f"/><stop offset=".45" stop-color="#121720"/><stop offset="1" stop-color="#0a0e14"/></linearGradient><linearGradient id="goldMetal" x2="0" y2="1"><stop stop-color="#ffe3a2"/><stop offset=".42" stop-color="#d7a94f"/><stop offset="1" stop-color="#79582b"/></linearGradient></defs>
<rect width="1600" height="1000" fill="url(#ground)"/>
<rect x="0" y="0" width="1600" height="108" fill="url(#header)"/>
<path d="M0 107H1600" stroke="url(#goldMetal)" stroke-width="2" opacity=".7"/>
<text x="54" y="42" fill="#d4ad61" font-family="Inter,Arial,sans-serif" font-size="14" font-weight="750" letter-spacing="2.2">ABOVE THE HILL  /  WM PRO</text>
<text x="54" y="82" fill="#e8e3d8" font-family="Inter,Arial,sans-serif" font-size="32" font-weight="650">Brick Wall · open-interest concentration tick</text>
<text x="1545" y="43" fill="#d4ad61" font-family="Inter,Arial,sans-serif" font-size="13" font-weight="750" text-anchor="end" letter-spacing="1.5">GARDEN 18  ·  PROPOSED</text>
<text x="1545" y="79" fill="#9b9a96" font-family="Inter,Arial,sans-serif" font-size="13" font-weight="550" text-anchor="end">P-13  /  PARENT BRICK WALL (F15.PRESSURE) · selectOptionsBarrierEvidence</text>
<text x="54" y="143" fill="#9b9a96" font-family="Inter,Arial,sans-serif" font-size="16">Observed positioning at the price axis — a different species from the pressure slab. Never support, resistance or a pin.</text>
<rect x="54" y="180" width="1492" height="560" rx="14" fill="#0a0e14" stroke="#3a3b37"/>
<line x1="70" y1="230" x2="1330" y2="230" stroke="#1d242e" stroke-width="1"/>
<line x1="70" y1="310" x2="1330" y2="310" stroke="#1d242e" stroke-width="1"/>
<line x1="70" y1="390" x2="1330" y2="390" stroke="#1d242e" stroke-width="1"/>
<line x1="70" y1="470" x2="1330" y2="470" stroke="#1d242e" stroke-width="1"/>
<line x1="70" y1="550" x2="1330" y2="550" stroke="#1d242e" stroke-width="1"/>
<line x1="70" y1="630" x2="1330" y2="630" stroke="#1d242e" stroke-width="1"/>
<line x1="70" y1="710" x2="1330" y2="710" stroke="#1d242e" stroke-width="1"/>
<line x1="1330" y1="196" x2="1330" y2="724" stroke="#2c3138"/>
<text x="1342" y="234" fill="#7d7a72" font-family="Inter,Arial,sans-serif" font-size="11" font-weight="500" text-anchor="start" letter-spacing="0">7790.00</text>
<text x="1342" y="314" fill="#7d7a72" font-family="Inter,Arial,sans-serif" font-size="11" font-weight="500" text-anchor="start" letter-spacing="0">7770.00</text>
<text x="1342" y="394" fill="#7d7a72" font-family="Inter,Arial,sans-serif" font-size="11" font-weight="500" text-anchor="start" letter-spacing="0">7750.00</text>
<text x="1342" y="474" fill="#7d7a72" font-family="Inter,Arial,sans-serif" font-size="11" font-weight="500" text-anchor="start" letter-spacing="0">7730.00</text>
<text x="1342" y="554" fill="#7d7a72" font-family="Inter,Arial,sans-serif" font-size="11" font-weight="500" text-anchor="start" letter-spacing="0">7710.00</text>
<text x="1342" y="634" fill="#7d7a72" font-family="Inter,Arial,sans-serif" font-size="11" font-weight="500" text-anchor="start" letter-spacing="0">7690.00</text>
<text x="1342" y="714" fill="#7d7a72" font-family="Inter,Arial,sans-serif" font-size="11" font-weight="500" text-anchor="start" letter-spacing="0">7670.00</text>
<line x1="107.8" y1="457.5" x2="107.8" y2="489.0" stroke="#ef6a76" stroke-width="1.6"/><rect x="97.8" y="470.0" width="19.9" height="5.9" rx="1.5" fill="#ef6a76"/>
<line x1="143.4" y1="463.5" x2="143.4" y2="511.9" stroke="#ef6a76" stroke-width="1.6"/><rect x="133.4" y="475.9" width="19.9" height="21.4" rx="1.5" fill="#ef6a76"/>
<line x1="179.0" y1="465.3" x2="179.0" y2="512.1" stroke="#3ccf9c" stroke-width="1.6"/><rect x="169.0" y="474.6" width="19.9" height="22.8" rx="1.5" fill="#3ccf9c"/>
<line x1="214.6" y1="460.3" x2="214.6" y2="487.1" stroke="#ef6a76" stroke-width="1.6"/><rect x="204.6" y="474.6" width="19.9" height="7.2" rx="1.5" fill="#ef6a76"/>
<line x1="250.1" y1="473.5" x2="250.1" y2="492.0" stroke="#3ccf9c" stroke-width="1.6"/><rect x="240.2" y="480.3" width="19.9" height="2.0" rx="1.5" fill="#3ccf9c"/>
<line x1="285.7" y1="476.1" x2="285.7" y2="490.3" stroke="#ef6a76" stroke-width="1.6"/><rect x="275.8" y="480.3" width="19.9" height="3.6" rx="1.5" fill="#ef6a76"/>
<line x1="321.3" y1="458.7" x2="321.3" y2="496.6" stroke="#3ccf9c" stroke-width="1.6"/><rect x="311.4" y="473.2" width="19.9" height="10.7" rx="1.5" fill="#3ccf9c"/>
<line x1="356.9" y1="443.6" x2="356.9" y2="478.8" stroke="#3ccf9c" stroke-width="1.6"/><rect x="346.9" y="456.7" width="19.9" height="16.5" rx="1.5" fill="#3ccf9c"/>
<line x1="392.5" y1="451.3" x2="392.5" y2="466.4" stroke="#ef6a76" stroke-width="1.6"/><rect x="382.5" y="456.7" width="19.9" height="5.7" rx="1.5" fill="#ef6a76"/>
<line x1="428.1" y1="456.0" x2="428.1" y2="486.8" stroke="#ef6a76" stroke-width="1.6"/><rect x="418.1" y="462.4" width="19.9" height="18.0" rx="1.5" fill="#ef6a76"/>
<line x1="463.7" y1="466.4" x2="463.7" y2="511.0" stroke="#ef6a76" stroke-width="1.6"/><rect x="453.7" y="480.4" width="19.9" height="23.3" rx="1.5" fill="#ef6a76"/>
<line x1="499.3" y1="493.6" x2="499.3" y2="537.8" stroke="#ef6a76" stroke-width="1.6"/><rect x="489.3" y="503.7" width="19.9" height="22.3" rx="1.5" fill="#ef6a76"/>
<line x1="534.9" y1="497.0" x2="534.9" y2="537.9" stroke="#3ccf9c" stroke-width="1.6"/><rect x="524.9" y="511.8" width="19.9" height="14.3" rx="1.5" fill="#3ccf9c"/>
<line x1="570.4" y1="497.6" x2="570.4" y2="541.8" stroke="#ef6a76" stroke-width="1.6"/><rect x="560.5" y="511.8" width="19.9" height="22.6" rx="1.5" fill="#ef6a76"/>
<line x1="606.0" y1="521.7" x2="606.0" y2="540.0" stroke="#3ccf9c" stroke-width="1.6"/><rect x="596.1" y="527.6" width="19.9" height="6.7" rx="1.5" fill="#3ccf9c"/>
<line x1="641.6" y1="499.1" x2="641.6" y2="538.5" stroke="#3ccf9c" stroke-width="1.6"/><rect x="631.7" y="506.6" width="19.9" height="21.0" rx="1.5" fill="#3ccf9c"/>
<line x1="677.2" y1="470.8" x2="677.2" y2="514.4" stroke="#3ccf9c" stroke-width="1.6"/><rect x="667.2" y="482.5" width="19.9" height="24.0" rx="1.5" fill="#3ccf9c"/>
<line x1="712.8" y1="460.0" x2="712.8" y2="492.0" stroke="#3ccf9c" stroke-width="1.6"/><rect x="702.8" y="473.3" width="19.9" height="9.2" rx="1.5" fill="#3ccf9c"/>
<line x1="748.4" y1="454.9" x2="748.4" y2="485.4" stroke="#3ccf9c" stroke-width="1.6"/><rect x="738.4" y="464.4" width="19.9" height="8.9" rx="1.5" fill="#3ccf9c"/>
<line x1="784.0" y1="427.9" x2="784.0" y2="468.7" stroke="#3ccf9c" stroke-width="1.6"/><rect x="774.0" y="443.0" width="19.9" height="21.4" rx="1.5" fill="#3ccf9c"/>
<line x1="819.6" y1="429.4" x2="819.6" y2="459.3" stroke="#ef6a76" stroke-width="1.6"/><rect x="809.6" y="443.0" width="19.9" height="12.1" rx="1.5" fill="#ef6a76"/>
<line x1="855.1" y1="446.9" x2="855.1" y2="479.6" stroke="#ef6a76" stroke-width="1.6"/><rect x="845.2" y="455.1" width="19.9" height="13.9" rx="1.5" fill="#ef6a76"/>
<line x1="890.7" y1="440.7" x2="890.7" y2="475.1" stroke="#3ccf9c" stroke-width="1.6"/><rect x="880.8" y="445.2" width="19.9" height="23.8" rx="1.5" fill="#3ccf9c"/>
<line x1="926.3" y1="439.0" x2="926.3" y2="479.9" stroke="#ef6a76" stroke-width="1.6"/><rect x="916.4" y="445.2" width="19.9" height="22.0" rx="1.5" fill="#ef6a76"/>
<line x1="961.9" y1="452.5" x2="961.9" y2="496.0" stroke="#ef6a76" stroke-width="1.6"/><rect x="951.9" y="467.3" width="19.9" height="20.8" rx="1.5" fill="#ef6a76"/>
<line x1="997.5" y1="471.1" x2="997.5" y2="500.9" stroke="#3ccf9c" stroke-width="1.6"/><rect x="987.5" y="481.0" width="19.9" height="7.0" rx="1.5" fill="#3ccf9c"/>
<line x1="1033.1" y1="449.5" x2="1033.1" y2="494.1" stroke="#3ccf9c" stroke-width="1.6"/><rect x="1023.1" y="462.1" width="19.9" height="19.0" rx="1.5" fill="#3ccf9c"/>
<line x1="1068.7" y1="457.7" x2="1068.7" y2="494.3" stroke="#ef6a76" stroke-width="1.6"/><rect x="1058.7" y="462.1" width="19.9" height="17.4" rx="1.5" fill="#ef6a76"/>
<line x1="1104.3" y1="451.8" x2="1104.3" y2="490.4" stroke="#3ccf9c" stroke-width="1.6"/><rect x="1094.3" y="459.7" width="19.9" height="19.8" rx="1.5" fill="#3ccf9c"/>
<line x1="1139.9" y1="451.8" x2="1139.9" y2="494.5" stroke="#ef6a76" stroke-width="1.6"/><rect x="1129.9" y="459.7" width="19.9" height="20.2" rx="1.5" fill="#ef6a76"/>
<line x1="1175.4" y1="472.4" x2="1175.4" y2="489.7" stroke="#ef6a76" stroke-width="1.6"/><rect x="1165.5" y="479.9" width="19.9" height="2.2" rx="1.5" fill="#ef6a76"/>
<line x1="1211.0" y1="461.6" x2="1211.0" y2="487.8" stroke="#3ccf9c" stroke-width="1.6"/><rect x="1201.1" y="466.5" width="19.9" height="15.6" rx="1.5" fill="#3ccf9c"/>
<line x1="1246.6" y1="451.1" x2="1246.6" y2="481.5" stroke="#ef6a76" stroke-width="1.6"/><rect x="1236.7" y="466.5" width="19.9" height="9.2" rx="1.5" fill="#ef6a76"/>
<line x1="1282.2" y1="438.6" x2="1282.2" y2="485.7" stroke="#3ccf9c" stroke-width="1.6"/><rect x="1272.2" y="453.8" width="19.9" height="21.9" rx="1.5" fill="#3ccf9c"/>
<rect x="70" y="372" width="1260" height="18" fill="#5c8abc" opacity=".16"/><line x1="70" y1="381" x2="1330" y2="381" stroke="#5c8abc" stroke-width="1" opacity=".55"/>
<text x="80" y="366" fill="#8fb2d8" font-family="Inter,Arial,sans-serif" font-size="12" font-weight="600" text-anchor="start" letter-spacing="0">PRESSURE WALL 7770 · INFERRED (dealer-gamma model) · TESTED ×2</text>
<line x1="1274" y1="300" x2="1330" y2="300" stroke="rgb(80,190,180)" stroke-width="2.4" stroke-dasharray="5 3"/>
<text x="1326" y="295" fill="rgb(80,190,180)" font-family="Inter,Arial,sans-serif" font-size="12" font-weight="650" text-anchor="end" letter-spacing="0">CALL OI 7800 · 351k</text>
<line x1="1274" y1="330" x2="1330" y2="330" stroke="rgb(80,190,180)" stroke-width="2.4" stroke-dasharray="5 3"/>
<text x="1326" y="325" fill="rgb(80,190,180)" font-family="Inter,Arial,sans-serif" font-size="12" font-weight="650" text-anchor="end" letter-spacing="0">CALL OI 7790 · 248k</text>
<line x1="1274" y1="560" x2="1330" y2="560" stroke="rgb(214,120,150)" stroke-width="2.4" stroke-dasharray="5 3"/>
<text x="1326" y="555" fill="rgb(214,120,150)" font-family="Inter,Arial,sans-serif" font-size="12" font-weight="650" text-anchor="end" letter-spacing="0">PUT OI 7720 · 367k</text>
<line x1="1274" y1="610" x2="1330" y2="610" stroke="rgb(214,120,150)" stroke-width="2.4" stroke-dasharray="5 3"/>
<text x="1326" y="605" fill="rgb(214,120,150)" font-family="Inter,Arial,sans-serif" font-size="12" font-weight="650" text-anchor="end" letter-spacing="0">PUT OI 7700 · 255k</text>
<text x="1240" y="250" fill="#7d7a72" font-family="Inter,Arial,sans-serif" font-size="11" font-weight="700" text-anchor="end" letter-spacing="1.2">AXIS-EDGE ONLY</text>
<path d="M1250 256 L1300 290" stroke="#7d7a72" stroke-width="1"/>
<rect x="1360" y="196" width="170" height="520" rx="12" fill="#0f141c" stroke="#3a3b37"/>
<text x="1382" y="228" fill="#d4ad61" font-family="Inter,Arial,sans-serif" font-size="13" font-weight="750" text-anchor="start" letter-spacing="1.4"></text>
<text x="1374" y="230" fill="#d4ad61" font-family="Inter,Arial,sans-serif" font-size="12" font-weight="750" text-anchor="start" letter-spacing="1.3">SELECTED</text>
<text x="1374" y="256" fill="#e8e3d8" font-family="Inter,Arial,sans-serif" font-size="15" font-weight="500" text-anchor="start" letter-spacing="0">CALL OI 7800</text>
<text x="1374" y="282" fill="#9b9a96" font-family="Inter,Arial,sans-serif" font-size="13" font-weight="500" text-anchor="start" letter-spacing="0">351,568 contracts</text>
<text x="1374" y="306" fill="#9b9a96" font-family="Inter,Arial,sans-serif" font-size="13" font-weight="500" text-anchor="start" letter-spacing="0">OBSERVED · Cboe</text>
<text x="1374" y="330" fill="#9b9a96" font-family="Inter,Arial,sans-serif" font-size="13" font-weight="500" text-anchor="start" letter-spacing="0">delayed ~15 min</text>
<text x="1374" y="354" fill="#9b9a96" font-family="Inter,Arial,sans-serif" font-size="13" font-weight="500" text-anchor="start" letter-spacing="0">OI: prior session</text>
<text x="1374" y="386" fill="#9b9a96" font-family="Inter,Arial,sans-serif" font-size="13" font-weight="500" text-anchor="start" letter-spacing="0">vol 12,400 (beside,</text>
<text x="1374" y="406" fill="#9b9a96" font-family="Inter,Arial,sans-serif" font-size="13" font-weight="500" text-anchor="start" letter-spacing="0">never added)</text>
<text x="1374" y="438" fill="#9b9a96" font-family="Inter,Arial,sans-serif" font-size="13" font-weight="500" text-anchor="start" letter-spacing="0">scope: all expiries</text>
<text x="1374" y="470" fill="#ef8f9a" font-family="Inter,Arial,sans-serif" font-size="13" font-weight="650" text-anchor="start" letter-spacing="0">NOT resistance</text>
<rect x="54" y="760" width="700" height="130" rx="12" fill="#0f141c" stroke="#3a3b37"/>
<text x="76" y="792" fill="#d4ad61" font-family="Inter,Arial,sans-serif" font-size="13" font-weight="750" text-anchor="start" letter-spacing="1.4">LEGEND</text>
<text x="76" y="824" fill="#e8e3d8" font-family="Inter,Arial,sans-serif" font-size="15" font-weight="500" text-anchor="start" letter-spacing="0">teal dashed tick = call open interest (observed)</text>
<text x="76" y="850" fill="#e8e3d8" font-family="Inter,Arial,sans-serif" font-size="15" font-weight="500" text-anchor="start" letter-spacing="0">rose dashed tick = put open interest (observed)</text>
<text x="76" y="876" fill="#e8e3d8" font-family="Inter,Arial,sans-serif" font-size="15" font-weight="500" text-anchor="start" letter-spacing="0">blue slab = dealer-gamma pressure wall (inferred model)</text>
<rect x="774" y="760" width="772" height="130" rx="12" fill="#0f141c" stroke="#3a3b37"/>
<text x="796" y="792" fill="#d4ad61" font-family="Inter,Arial,sans-serif" font-size="13" font-weight="750" text-anchor="start" letter-spacing="1.4">RULES</text>
<text x="796" y="824" fill="#e8e3d8" font-family="Inter,Arial,sans-serif" font-size="15" font-weight="500" text-anchor="start" letter-spacing="0">top 3 per side · ≥5% of side OI within ±20% of spot</text>
<text x="796" y="850" fill="#e8e3d8" font-family="Inter,Arial,sans-serif" font-size="15" font-weight="500" text-anchor="start" letter-spacing="0">off-camera strikes listed OFF_CAMERA in the receipt, never pulled in</text>
<text x="796" y="876" fill="#e8e3d8" font-family="Inter,Arial,sans-serif" font-size="15" font-weight="500" text-anchor="start" letter-spacing="0">receipt: data-options-oi-walls · Inspect: OPTIONS EVIDENCE block</text>
<path d="M54 905H1546" stroke="#4a4030"/>
<text x="54" y="935" fill="#d4ad61" font-family="Inter,Arial,sans-serif" font-size="13" font-weight="750" text-anchor="start" letter-spacing="1.2">ATH MARKET INSTRUMENTS  ·  PRICE REMAINS SOVEREIGN  ·  EVIDENCE STATE VISIBLE  ·  PROPOSED UNTIL FOUNDER CANON ACCEPTANCE</text>
<text x="54" y="962" fill="#9b9a96" font-family="Inter,Arial,sans-serif" font-size="14" font-weight="400" text-anchor="start" letter-spacing="0">Schematic values. Live object carries source, chain asOf, expiry scope (ALL / NEAREST / 0DTE) and contracts excluded without IV.</text>
<text x="54" y="984" fill="#9b9a96" font-family="Inter,Arial,sans-serif" font-size="14" font-weight="400" text-anchor="start" letter-spacing="0">Shipped renderer: MainChart OI ticks under Brick Walls (5471bbd); this plate asks for canon acceptance of the material.</text>
</svg>