<svg xmlns="http://www.w3.org/2000/svg" width="1600" height="1000" viewBox="0 0 1600 1000">
<defs><linearGradient id="ground" x2="0" y2="1"><stop stop-color="#18202a"/><stop offset=".42" stop-color="#0c1119"/><stop offset="1" stop-color="#080b10"/></linearGradient><linearGradient id="header" x2="1" y2="0"><stop stop-color="#25251f"/><stop offset=".45" stop-color="#121720"/><stop offset="1" stop-color="#0a0e14"/></linearGradient><linearGradient id="goldMetal" x2="0" y2="1"><stop stop-color="#ffe3a2"/><stop offset=".42" stop-color="#d7a94f"/><stop offset="1" stop-color="#79582b"/></linearGradient></defs>
<rect width="1600" height="1000" fill="url(#ground)"/>
<rect x="0" y="0" width="1600" height="108" fill="url(#header)"/>
<path d="M0 107H1600" stroke="url(#goldMetal)" stroke-width="2" opacity=".7"/>
<text x="54" y="42" fill="#d4ad61" font-family="Inter,Arial,sans-serif" font-size="14" font-weight="750" letter-spacing="2.2">ABOVE THE HILL  /  WM PRO</text>
<text x="54" y="82" fill="#e8e3d8" font-family="Inter,Arial,sans-serif" font-size="32" font-weight="650">Market Breathing · on the canvas</text>
<text x="1545" y="43" fill="#d4ad61" font-family="Inter,Arial,sans-serif" font-size="13" font-weight="750" text-anchor="end" letter-spacing="1.5">GARDEN 18  ·  PROPOSED</text>
<text x="1545" y="79" fill="#9b9a96" font-family="Inter,Arial,sans-serif" font-size="13" font-weight="550" text-anchor="end">P-14  /  PARENT F15.BREATHING · src/lib/chart/marketBreathing.ts</text>
<text x="54" y="143" fill="#9b9a96" font-family="Inter,Arial,sans-serif" font-size="16">ATR-wide band edges hug each eligible bar; tone names compression or expansion. Band edges only — candles stay readable.</text>
<rect x="54" y="180" width="1492" height="560" rx="14" fill="#0a0e14" stroke="#3a3b37"/>
<line x1="70" y1="230" x2="1330" y2="230" stroke="#1d242e" stroke-width="1"/>
<line x1="70" y1="310" x2="1330" y2="310" stroke="#1d242e" stroke-width="1"/>
<line x1="70" y1="390" x2="1330" y2="390" stroke="#1d242e" stroke-width="1"/>
<line x1="70" y1="470" x2="1330" y2="470" stroke="#1d242e" stroke-width="1"/>
<line x1="70" y1="550" x2="1330" y2="550" stroke="#1d242e" stroke-width="1"/>
<line x1="70" y1="630" x2="1330" y2="630" stroke="#1d242e" stroke-width="1"/>
<line x1="70" y1="710" x2="1330" y2="710" stroke="#1d242e" stroke-width="1"/>
<line x1="1330" y1="196" x2="1330" y2="724" stroke="#2c3138"/>
<text x="1342" y="234" fill="#7d7a72" font-family="Inter,Arial,sans-serif" font-size="11" font-weight="500" text-anchor="start" letter-spacing="0">7790.00</text>
<text x="1342" y="314" fill="#7d7a72" font-family="Inter,Arial,sans-serif" font-size="11" font-weight="500" text-anchor="start" letter-spacing="0">7770.00</text>
<text x="1342" y="394" fill="#7d7a72" font-family="Inter,Arial,sans-serif" font-size="11" font-weight="500" text-anchor="start" letter-spacing="0">7750.00</text>
<text x="1342" y="474" fill="#7d7a72" font-family="Inter,Arial,sans-serif" font-size="11" font-weight="500" text-anchor="start" letter-spacing="0">7730.00</text>
<text x="1342" y="554" fill="#7d7a72" font-family="Inter,Arial,sans-serif" font-size="11" font-weight="500" text-anchor="start" letter-spacing="0">7710.00</text>
<text x="1342" y="634" fill="#7d7a72" font-family="Inter,Arial,sans-serif" font-size="11" font-weight="500" text-anchor="start" letter-spacing="0">7690.00</text>
<text x="1342" y="714" fill="#7d7a72" font-family="Inter,Arial,sans-serif" font-size="11" font-weight="500" text-anchor="start" letter-spacing="0">7670.00</text>
<polyline points="107.8,456.6 143.4,451.3 179.0,442.2 214.6,440.2 250.1,434.8 285.7,417.0 321.3,408.6 356.9,402.2 392.5,388.3 428.1,385.4 463.7,384.5 499.3,390.1" fill="none" stroke="#7f9ab8" stroke-width="1.4" opacity=".75"/><polyline points="107.8,484.6 143.4,484.3 179.0,479.8 214.6,481.8 250.1,479.7 285.7,464.0 321.3,456.6 356.9,449.8 392.5,434.5 428.1,428.9 463.7,424.5 499.3,425.7" fill="none" stroke="#7f9ab8" stroke-width="1.4" opacity=".75"/>
<polyline points="499.3,390.1 534.9,405.7 570.4,422.4 606.0,428.2 641.6,419.2 677.2,426.5 712.8,433.0 748.4,438.1 784.0,449.6 819.6,448.5 855.1,442.2 890.7,440.5" fill="none" stroke="#a8a59a" stroke-width="1.4" opacity=".75"/><polyline points="499.3,425.7 534.9,436.5 570.4,448.3 606.0,449.1 641.6,435.8 677.2,439.4 712.8,443.1 748.4,446.5 784.0,457.6 819.6,457.3 855.1,453.1 890.7,454.4" fill="none" stroke="#a8a59a" stroke-width="1.4" opacity=".75"/>
<polyline points="890.7,440.5 926.3,408.6 961.9,391.7 997.5,389.9 1033.1,386.3 1068.7,383.7 1104.3,381.4 1139.9,378.7 1175.4,373.0 1211.0,360.2 1246.6,348.3 1282.2,344.7" fill="none" stroke="#e0a050" stroke-width="1.4" opacity=".75"/><polyline points="890.7,454.4 926.3,450.5 961.9,438.1 997.5,441.2 1033.1,442.6 1068.7,444.7 1104.3,446.5 1139.9,447.1 1175.4,443.8 1211.0,432.1 1246.6,420.1 1282.2,415.1" fill="none" stroke="#e0a050" stroke-width="1.4" opacity=".75"/>
<line x1="107.8" y1="459.3" x2="107.8" y2="481.9" stroke="#3ccf9c" stroke-width="1.6"/><rect x="97.8" y="468.1" width="19.9" height="2.0" rx="1.5" fill="#3ccf9c"/>
<line x1="143.4" y1="458.4" x2="143.4" y2="477.2" stroke="#3ccf9c" stroke-width="1.6"/><rect x="133.4" y="466.8" width="19.9" height="2.0" rx="1.5" fill="#3ccf9c"/>
<line x1="179.0" y1="445.9" x2="179.0" y2="476.2" stroke="#3ccf9c" stroke-width="1.6"/><rect x="169.0" y="454.3" width="19.9" height="12.5" rx="1.5" fill="#3ccf9c"/>
<line x1="214.6" y1="449.5" x2="214.6" y2="472.5" stroke="#ef6a76" stroke-width="1.6"/><rect x="204.6" y="454.3" width="19.9" height="11.6" rx="1.5" fill="#ef6a76"/>
<line x1="250.1" y1="438.7" x2="250.1" y2="475.8" stroke="#3ccf9c" stroke-width="1.6"/><rect x="240.2" y="449.7" width="19.9" height="16.2" rx="1.5" fill="#3ccf9c"/>
<line x1="285.7" y1="419.1" x2="285.7" y2="462.0" stroke="#3ccf9c" stroke-width="1.6"/><rect x="275.8" y="431.5" width="19.9" height="18.1" rx="1.5" fill="#3ccf9c"/>
<line x1="321.3" y1="422.2" x2="321.3" y2="443.0" stroke="#ef6a76" stroke-width="1.6"/><rect x="311.4" y="431.5" width="19.9" height="6.1" rx="1.5" fill="#ef6a76"/>
<line x1="356.9" y1="409.9" x2="356.9" y2="442.1" stroke="#3ccf9c" stroke-width="1.6"/><rect x="346.9" y="418.4" width="19.9" height="19.2" rx="1.5" fill="#3ccf9c"/>
<line x1="392.5" y1="400.1" x2="392.5" y2="422.7" stroke="#3ccf9c" stroke-width="1.6"/><rect x="382.5" y="406.1" width="19.9" height="12.3" rx="1.5" fill="#3ccf9c"/>
<line x1="428.1" y1="396.9" x2="428.1" y2="417.4" stroke="#3ccf9c" stroke-width="1.6"/><rect x="418.1" y="404.7" width="19.9" height="2.0" rx="1.5" fill="#3ccf9c"/>
<line x1="463.7" y1="395.2" x2="463.7" y2="413.8" stroke="#ef6a76" stroke-width="1.6"/><rect x="453.7" y="404.7" width="19.9" height="2.0" rx="1.5" fill="#ef6a76"/>
<line x1="499.3" y1="397.5" x2="499.3" y2="418.3" stroke="#ef6a76" stroke-width="1.6"/><rect x="489.3" y="405.5" width="19.9" height="6.4" rx="1.5" fill="#ef6a76"/>
<line x1="534.9" y1="399.3" x2="534.9" y2="442.8" stroke="#ef6a76" stroke-width="1.6"/><rect x="524.9" y="411.9" width="19.9" height="19.7" rx="1.5" fill="#ef6a76"/>
<line x1="570.4" y1="424.9" x2="570.4" y2="445.8" stroke="#ef6a76" stroke-width="1.6"/><rect x="560.5" y="431.6" width="19.9" height="8.2" rx="1.5" fill="#ef6a76"/>
<line x1="606.0" y1="426.9" x2="606.0" y2="450.4" stroke="#3ccf9c" stroke-width="1.6"/><rect x="596.1" y="431.5" width="19.9" height="8.4" rx="1.5" fill="#3ccf9c"/>
<line x1="641.6" y1="416.3" x2="641.6" y2="438.8" stroke="#3ccf9c" stroke-width="1.6"/><rect x="631.7" y="427.5" width="19.9" height="3.9" rx="1.5" fill="#3ccf9c"/>
<line x1="677.2" y1="416.3" x2="677.2" y2="449.7" stroke="#ef6a76" stroke-width="1.6"/><rect x="667.2" y="427.5" width="19.9" height="18.1" rx="1.5" fill="#ef6a76"/>
<line x1="712.8" y1="422.4" x2="712.8" y2="453.7" stroke="#3ccf9c" stroke-width="1.6"/><rect x="702.8" y="434.2" width="19.9" height="11.5" rx="1.5" fill="#3ccf9c"/>
<line x1="748.4" y1="426.8" x2="748.4" y2="457.8" stroke="#ef6a76" stroke-width="1.6"/><rect x="738.4" y="434.2" width="19.9" height="19.0" rx="1.5" fill="#ef6a76"/>
<line x1="784.0" y1="442.5" x2="784.0" y2="464.7" stroke="#ef6a76" stroke-width="1.6"/><rect x="774.0" y="453.2" width="19.9" height="5.1" rx="1.5" fill="#ef6a76"/>
<line x1="819.6" y1="435.1" x2="819.6" y2="470.6" stroke="#3ccf9c" stroke-width="1.6"/><rect x="809.6" y="442.0" width="19.9" height="16.3" rx="1.5" fill="#3ccf9c"/>
<line x1="855.1" y1="437.0" x2="855.1" y2="458.3" stroke="#ef6a76" stroke-width="1.6"/><rect x="845.2" y="442.0" width="19.9" height="10.2" rx="1.5" fill="#ef6a76"/>
<line x1="890.7" y1="431.9" x2="890.7" y2="463.1" stroke="#3ccf9c" stroke-width="1.6"/><rect x="880.8" y="436.4" width="19.9" height="15.8" rx="1.5" fill="#3ccf9c"/>
<line x1="926.3" y1="414.8" x2="926.3" y2="444.2" stroke="#3ccf9c" stroke-width="1.6"/><rect x="916.4" y="423.6" width="19.9" height="12.8" rx="1.5" fill="#3ccf9c"/>
<line x1="961.9" y1="401.1" x2="961.9" y2="428.8" stroke="#3ccf9c" stroke-width="1.6"/><rect x="951.9" y="411.4" width="19.9" height="12.2" rx="1.5" fill="#3ccf9c"/>
<line x1="997.5" y1="406.4" x2="997.5" y2="424.7" stroke="#ef6a76" stroke-width="1.6"/><rect x="987.5" y="411.4" width="19.9" height="5.7" rx="1.5" fill="#ef6a76"/>
<line x1="1033.1" y1="399.4" x2="1033.1" y2="429.4" stroke="#3ccf9c" stroke-width="1.6"/><rect x="1023.1" y="405.7" width="19.9" height="11.4" rx="1.5" fill="#3ccf9c"/>
<line x1="1068.7" y1="399.1" x2="1068.7" y2="429.3" stroke="#ef6a76" stroke-width="1.6"/><rect x="1058.7" y="405.7" width="19.9" height="12.0" rx="1.5" fill="#ef6a76"/>
<line x1="1104.3" y1="398.9" x2="1104.3" y2="429.1" stroke="#3ccf9c" stroke-width="1.6"/><rect x="1094.3" y="406.3" width="19.9" height="11.5" rx="1.5" fill="#3ccf9c"/>
<line x1="1139.9" y1="401.4" x2="1139.9" y2="424.4" stroke="#ef6a76" stroke-width="1.6"/><rect x="1129.9" y="406.3" width="19.9" height="5.6" rx="1.5" fill="#ef6a76"/>
<line x1="1175.4" y1="394.3" x2="1175.4" y2="422.5" stroke="#3ccf9c" stroke-width="1.6"/><rect x="1165.5" y="400.5" width="19.9" height="11.4" rx="1.5" fill="#3ccf9c"/>
<line x1="1211.0" y1="387.2" x2="1211.0" y2="405.2" stroke="#3ccf9c" stroke-width="1.6"/><rect x="1201.1" y="393.8" width="19.9" height="6.8" rx="1.5" fill="#3ccf9c"/>
<line x1="1246.6" y1="368.5" x2="1246.6" y2="399.8" stroke="#3ccf9c" stroke-width="1.6"/><rect x="1236.7" y="377.5" width="19.9" height="16.2" rx="1.5" fill="#3ccf9c"/>
<line x1="1282.2" y1="370.3" x2="1282.2" y2="389.4" stroke="#ef6a76" stroke-width="1.6"/><rect x="1272.2" y="377.5" width="19.9" height="4.0" rx="1.5" fill="#ef6a76"/>
<line x1="872.9" y1="210" x2="872.9" y2="236" stroke="#e0a050" stroke-width="3"/><text x="878.9411764705882" y="226" fill="#e0a050" font-family="Inter,Arial,sans-serif" font-size="12" font-weight="650" text-anchor="start" letter-spacing="0">RELEASE · expansion begins</text>
<text x="110" y="226" fill="#7d7a72" font-family="Inter,Arial,sans-serif" font-size="12" font-weight="600" text-anchor="start" letter-spacing="0">warm-up: 14 bars (ATR) · named on glass</text>
<text x="250" y="700" fill="#7f9ab8" font-family="Inter,Arial,sans-serif" font-size="12" font-weight="700" text-anchor="start" letter-spacing="1.2">COMPRESSING</text>
<text x="660" y="700" fill="#a8a59a" font-family="Inter,Arial,sans-serif" font-size="12" font-weight="700" text-anchor="start" letter-spacing="1.2">STEADY</text>
<text x="1080" y="700" fill="#e0a050" font-family="Inter,Arial,sans-serif" font-size="12" font-weight="700" text-anchor="start" letter-spacing="1.2">EXPANDING</text>
<rect x="1360" y="196" width="170" height="520" rx="12" fill="#0f141c" stroke="#3a3b37"/>
<text x="1382" y="228" fill="#d4ad61" font-family="Inter,Arial,sans-serif" font-size="13" font-weight="750" text-anchor="start" letter-spacing="1.4"></text>
<text x="1374" y="230" fill="#d4ad61" font-family="Inter,Arial,sans-serif" font-size="12" font-weight="750" text-anchor="start" letter-spacing="1.3">INSPECT · NOTCH</text>
<text x="1374" y="258" fill="#e8e3d8" font-family="Inter,Arial,sans-serif" font-size="15" font-weight="500" text-anchor="start" letter-spacing="0">ATR 18.4</text>
<text x="1374" y="284" fill="#9b9a96" font-family="Inter,Arial,sans-serif" font-size="13" font-weight="500" text-anchor="start" letter-spacing="0">realized vol 21%</text>
<text x="1374" y="308" fill="#9b9a96" font-family="Inter,Arial,sans-serif" font-size="13" font-weight="500" text-anchor="start" letter-spacing="0">run: 11 bars</text>
<text x="1374" y="332" fill="#9b9a96" font-family="Inter,Arial,sans-serif" font-size="13" font-weight="500" text-anchor="start" letter-spacing="0">OBSERVED OHLC</text>
<text x="1374" y="356" fill="#9b9a96" font-family="Inter,Arial,sans-serif" font-size="13" font-weight="500" text-anchor="start" letter-spacing="0">DERIVED measure</text>
<text x="1374" y="392" fill="#ef8f9a" font-family="Inter,Arial,sans-serif" font-size="13" font-weight="650" text-anchor="start" letter-spacing="0">no direction</text>
<text x="1374" y="414" fill="#ef8f9a" font-family="Inter,Arial,sans-serif" font-size="13" font-weight="650" text-anchor="start" letter-spacing="0">implied</text>
<rect x="54" y="760" width="700" height="130" rx="12" fill="#0f141c" stroke="#3a3b37"/>
<text x="76" y="792" fill="#d4ad61" font-family="Inter,Arial,sans-serif" font-size="13" font-weight="750" text-anchor="start" letter-spacing="1.4">DEPTH</text>
<text x="76" y="824" fill="#e8e3d8" font-family="Inter,Arial,sans-serif" font-size="15" font-weight="500" text-anchor="start" letter-spacing="0">FAR: band only  ·  MID: + release notches</text>
<text x="76" y="850" fill="#e8e3d8" font-family="Inter,Arial,sans-serif" font-size="15" font-weight="500" text-anchor="start" letter-spacing="0">NEAR: + per-bar ATR on hover</text>
<text x="76" y="876" fill="#e8e3d8" font-family="Inter,Arial,sans-serif" font-size="15" font-weight="500" text-anchor="start" letter-spacing="0">fewer bars than warm-up → silent row 'breathing needs N bars'</text>
<rect x="774" y="760" width="772" height="130" rx="12" fill="#0f141c" stroke="#3a3b37"/>
<text x="796" y="792" fill="#d4ad61" font-family="Inter,Arial,sans-serif" font-size="13" font-weight="750" text-anchor="start" letter-spacing="1.4">FORBIDDEN</text>
<text x="796" y="824" fill="#e8e3d8" font-family="Inter,Arial,sans-serif" font-size="15" font-weight="500" text-anchor="start" letter-spacing="0">painting candle bodies · implying direction</text>
<text x="796" y="850" fill="#e8e3d8" font-family="Inter,Arial,sans-serif" font-size="15" font-weight="500" text-anchor="start" letter-spacing="0">calling compression a 'squeeze signal'</text>
<text x="796" y="876" fill="#e8e3d8" font-family="Inter,Arial,sans-serif" font-size="15" font-weight="500" text-anchor="start" letter-spacing="0">a rail card substituting for the canvas manifestation</text>
<path d="M54 905H1546" stroke="#4a4030"/>
<text x="54" y="935" fill="#d4ad61" font-family="Inter,Arial,sans-serif" font-size="13" font-weight="750" text-anchor="start" letter-spacing="1.2">ATH MARKET INSTRUMENTS  ·  PRICE REMAINS SOVEREIGN  ·  EVIDENCE STATE VISIBLE  ·  PROPOSED UNTIL FOUNDER CANON ACCEPTANCE</text>
<text x="54" y="962" fill="#9b9a96" font-family="Inter,Arial,sans-serif" font-size="14" font-weight="400" text-anchor="start" letter-spacing="0">Schematic. Today the reading lives as a rail card (census: PARTIAL / PANEL_ONLY). Acceptance of this plate unlocks the canvas renderer.</text>
<text x="54" y="984" fill="#9b9a96" font-family="Inter,Arial,sans-serif" font-size="14" font-weight="400" text-anchor="start" letter-spacing="0">Coverage: every eligible bar after the ATR warm-up — a continuous series, not an event.</text>
</svg>