<svg xmlns="http://www.w3.org/2000/svg" width="1600" height="1000" viewBox="0 0 1600 1000">
<defs><linearGradient id="ground" x2="0" y2="1"><stop stop-color="#18202a"/><stop offset=".42" stop-color="#0c1119"/><stop offset="1" stop-color="#080b10"/></linearGradient><linearGradient id="header" x2="1" y2="0"><stop stop-color="#25251f"/><stop offset=".45" stop-color="#121720"/><stop offset="1" stop-color="#0a0e14"/></linearGradient><linearGradient id="goldMetal" x2="0" y2="1"><stop stop-color="#ffe3a2"/><stop offset=".42" stop-color="#d7a94f"/><stop offset="1" stop-color="#79582b"/></linearGradient></defs>
<rect width="1600" height="1000" fill="url(#ground)"/>
<rect x="0" y="0" width="1600" height="108" fill="url(#header)"/>
<path d="M0 107H1600" stroke="url(#goldMetal)" stroke-width="2" opacity=".7"/>
<text x="54" y="42" fill="#d4ad61" font-family="Inter,Arial,sans-serif" font-size="14" font-weight="750" letter-spacing="2.2">ABOVE THE HILL  /  WM PRO</text>
<text x="54" y="82" fill="#e8e3d8" font-family="Inter,Arial,sans-serif" font-size="32" font-weight="650">Response Matrix · effort × response under each bar</text>
<text x="1545" y="43" fill="#d4ad61" font-family="Inter,Arial,sans-serif" font-size="13" font-weight="750" text-anchor="end" letter-spacing="1.5">GARDEN 18  ·  PROPOSED</text>
<text x="1545" y="79" fill="#9b9a96" font-family="Inter,Arial,sans-serif" font-size="13" font-weight="550" text-anchor="end">P-15  /  PARENT AB.MATRIX · src/lib/chart/effortEvidence.ts</text>
<text x="54" y="143" fill="#9b9a96" font-family="Inter,Arial,sans-serif" font-size="16">A 2×2 glyph under each bar with SIGNED tape. Mismatch cells (high effort / small move, low effort / large move) outlined gold.</text>
<rect x="54" y="180" width="1492" height="560" rx="14" fill="#0a0e14" stroke="#3a3b37"/>
<line x1="70" y1="230" x2="1330" y2="230" stroke="#1d242e" stroke-width="1"/>
<line x1="70" y1="310" x2="1330" y2="310" stroke="#1d242e" stroke-width="1"/>
<line x1="70" y1="390" x2="1330" y2="390" stroke="#1d242e" stroke-width="1"/>
<line x1="70" y1="470" x2="1330" y2="470" stroke="#1d242e" stroke-width="1"/>
<line x1="70" y1="550" x2="1330" y2="550" stroke="#1d242e" stroke-width="1"/>
<line x1="70" y1="630" x2="1330" y2="630" stroke="#1d242e" stroke-width="1"/>
<line x1="70" y1="710" x2="1330" y2="710" stroke="#1d242e" stroke-width="1"/>
<line x1="1330" y1="196" x2="1330" y2="724" stroke="#2c3138"/>
<text x="1342" y="234" fill="#7d7a72" font-family="Inter,Arial,sans-serif" font-size="11" font-weight="500" text-anchor="start" letter-spacing="0">7790.00</text>
<text x="1342" y="314" fill="#7d7a72" font-family="Inter,Arial,sans-serif" font-size="11" font-weight="500" text-anchor="start" letter-spacing="0">7770.00</text>
<text x="1342" y="394" fill="#7d7a72" font-family="Inter,Arial,sans-serif" font-size="11" font-weight="500" text-anchor="start" letter-spacing="0">7750.00</text>
<text x="1342" y="474" fill="#7d7a72" font-family="Inter,Arial,sans-serif" font-size="11" font-weight="500" text-anchor="start" letter-spacing="0">7730.00</text>
<text x="1342" y="554" fill="#7d7a72" font-family="Inter,Arial,sans-serif" font-size="11" font-weight="500" text-anchor="start" letter-spacing="0">7710.00</text>
<text x="1342" y="634" fill="#7d7a72" font-family="Inter,Arial,sans-serif" font-size="11" font-weight="500" text-anchor="start" letter-spacing="0">7690.00</text>
<text x="1342" y="714" fill="#7d7a72" font-family="Inter,Arial,sans-serif" font-size="11" font-weight="500" text-anchor="start" letter-spacing="0">7670.00</text>
<line x1="107.8" y1="458.2" x2="107.8" y2="487.0" stroke="#ef6a76" stroke-width="1.6"/><rect x="97.8" y="470.0" width="19.9" height="7.8" rx="1.5" fill="#ef6a76"/>
<line x1="143.4" y1="469.9" x2="143.4" y2="492.3" stroke="#ef6a76" stroke-width="1.6"/><rect x="133.4" y="477.8" width="19.9" height="2.0" rx="1.5" fill="#ef6a76"/>
<line x1="179.0" y1="463.5" x2="179.0" y2="484.9" stroke="#3ccf9c" stroke-width="1.6"/><rect x="169.0" y="469.0" width="19.9" height="9.3" rx="1.5" fill="#3ccf9c"/>
<line x1="214.6" y1="451.2" x2="214.6" y2="475.7" stroke="#3ccf9c" stroke-width="1.6"/><rect x="204.6" y="458.5" width="19.9" height="10.5" rx="1.5" fill="#3ccf9c"/>
<line x1="250.1" y1="434.0" x2="250.1" y2="465.6" stroke="#3ccf9c" stroke-width="1.6"/><rect x="240.2" y="441.2" width="19.9" height="17.3" rx="1.5" fill="#3ccf9c"/>
<line x1="285.7" y1="435.2" x2="285.7" y2="449.0" stroke="#ef6a76" stroke-width="1.6"/><rect x="275.8" y="441.2" width="19.9" height="3.0" rx="1.5" fill="#ef6a76"/>
<line x1="321.3" y1="421.8" x2="321.3" y2="452.2" stroke="#3ccf9c" stroke-width="1.6"/><rect x="311.4" y="431.2" width="19.9" height="13.1" rx="1.5" fill="#3ccf9c"/>
<line x1="356.9" y1="419.2" x2="356.9" y2="449.6" stroke="#ef6a76" stroke-width="1.6"/><rect x="346.9" y="431.2" width="19.9" height="10.3" rx="1.5" fill="#ef6a76"/>
<line x1="392.5" y1="412.6" x2="392.5" y2="453.0" stroke="#3ccf9c" stroke-width="1.6"/><rect x="382.5" y="423.8" width="19.9" height="17.6" rx="1.5" fill="#3ccf9c"/>
<line x1="428.1" y1="408.7" x2="428.1" y2="430.8" stroke="#3ccf9c" stroke-width="1.6"/><rect x="418.1" y="419.3" width="19.9" height="4.6" rx="1.5" fill="#3ccf9c"/>
<line x1="463.7" y1="406.9" x2="463.7" y2="449.4" stroke="#ef6a76" stroke-width="1.6"/><rect x="453.7" y="419.3" width="19.9" height="18.3" rx="1.5" fill="#ef6a76"/>
<line x1="499.3" y1="431.2" x2="499.3" y2="466.9" stroke="#ef6a76" stroke-width="1.6"/><rect x="489.3" y="437.5" width="19.9" height="20.0" rx="1.5" fill="#ef6a76"/>
<line x1="534.9" y1="445.5" x2="534.9" y2="475.6" stroke="#ef6a76" stroke-width="1.6"/><rect x="524.9" y="457.5" width="19.9" height="10.2" rx="1.5" fill="#ef6a76"/>
<line x1="570.4" y1="441.5" x2="570.4" y2="472.7" stroke="#3ccf9c" stroke-width="1.6"/><rect x="560.5" y="451.8" width="19.9" height="15.9" rx="1.5" fill="#3ccf9c"/>
<line x1="606.0" y1="447.7" x2="606.0" y2="469.3" stroke="#ef6a76" stroke-width="1.6"/><rect x="596.1" y="451.8" width="19.9" height="9.0" rx="1.5" fill="#ef6a76"/>
<line x1="641.6" y1="454.7" x2="641.6" y2="469.6" stroke="#3ccf9c" stroke-width="1.6"/><rect x="631.7" y="459.9" width="19.9" height="2.0" rx="1.5" fill="#3ccf9c"/>
<line x1="677.2" y1="452.2" x2="677.2" y2="472.9" stroke="#ef6a76" stroke-width="1.6"/><rect x="667.2" y="459.9" width="19.9" height="2.0" rx="1.5" fill="#ef6a76"/>
<line x1="712.8" y1="447.0" x2="712.8" y2="482.5" stroke="#ef6a76" stroke-width="1.6"/><rect x="702.8" y="459.9" width="19.9" height="16.1" rx="1.5" fill="#ef6a76"/>
<line x1="748.4" y1="447.4" x2="748.4" y2="481.2" stroke="#3ccf9c" stroke-width="1.6"/><rect x="738.4" y="455.2" width="19.9" height="20.9" rx="1.5" fill="#3ccf9c"/>
<line x1="784.0" y1="448.5" x2="784.0" y2="469.5" stroke="#ef6a76" stroke-width="1.6"/><rect x="774.0" y="455.2" width="19.9" height="9.0" rx="1.5" fill="#ef6a76"/>
<line x1="819.6" y1="446.6" x2="819.6" y2="475.5" stroke="#3ccf9c" stroke-width="1.6"/><rect x="809.6" y="454.7" width="19.9" height="9.5" rx="1.5" fill="#3ccf9c"/>
<line x1="855.1" y1="445.9" x2="855.1" y2="465.4" stroke="#3ccf9c" stroke-width="1.6"/><rect x="845.2" y="453.0" width="19.9" height="2.0" rx="1.5" fill="#3ccf9c"/>
<line x1="890.7" y1="426.9" x2="890.7" y2="463.8" stroke="#3ccf9c" stroke-width="1.6"/><rect x="880.8" y="432.9" width="19.9" height="20.0" rx="1.5" fill="#3ccf9c"/>
<line x1="926.3" y1="427.9" x2="926.3" y2="448.7" stroke="#ef6a76" stroke-width="1.6"/><rect x="916.4" y="432.9" width="19.9" height="11.1" rx="1.5" fill="#ef6a76"/>
<line x1="961.9" y1="433.5" x2="961.9" y2="448.5" stroke="#ef6a76" stroke-width="1.6"/><rect x="951.9" y="444.0" width="19.9" height="2.0" rx="1.5" fill="#ef6a76"/>
<line x1="997.5" y1="434.8" x2="997.5" y2="449.1" stroke="#3ccf9c" stroke-width="1.6"/><rect x="987.5" y="441.5" width="19.9" height="2.8" rx="1.5" fill="#3ccf9c"/>
<line x1="1033.1" y1="420.2" x2="1033.1" y2="450.2" stroke="#3ccf9c" stroke-width="1.6"/><rect x="1023.1" y="427.0" width="19.9" height="14.5" rx="1.5" fill="#3ccf9c"/>
<line x1="1068.7" y1="399.8" x2="1068.7" y2="439.8" stroke="#3ccf9c" stroke-width="1.6"/><rect x="1058.7" y="410.0" width="19.9" height="17.1" rx="1.5" fill="#3ccf9c"/>
<line x1="1104.3" y1="405.3" x2="1104.3" y2="428.6" stroke="#ef6a76" stroke-width="1.6"/><rect x="1094.3" y="410.0" width="19.9" height="8.1" rx="1.5" fill="#ef6a76"/>
<line x1="1139.9" y1="414.0" x2="1139.9" y2="431.8" stroke="#ef6a76" stroke-width="1.6"/><rect x="1129.9" y="418.1" width="19.9" height="5.9" rx="1.5" fill="#ef6a76"/>
<line x1="1175.4" y1="410.5" x2="1175.4" y2="444.0" stroke="#ef6a76" stroke-width="1.6"/><rect x="1165.5" y="424.0" width="19.9" height="6.7" rx="1.5" fill="#ef6a76"/>
<line x1="1211.0" y1="420.8" x2="1211.0" y2="447.3" stroke="#ef6a76" stroke-width="1.6"/><rect x="1201.1" y="430.7" width="19.9" height="3.1" rx="1.5" fill="#ef6a76"/>
<line x1="1246.6" y1="411.9" x2="1246.6" y2="438.4" stroke="#3ccf9c" stroke-width="1.6"/><rect x="1236.7" y="421.0" width="19.9" height="12.7" rx="1.5" fill="#3ccf9c"/>
<line x1="1282.2" y1="410.5" x2="1282.2" y2="439.2" stroke="#ef6a76" stroke-width="1.6"/><rect x="1272.2" y="421.0" width="19.9" height="12.1" rx="1.5" fill="#ef6a76"/>
<line x1="801.8" y1="200" x2="801.8" y2="700" stroke="#c8c0ae" stroke-dasharray="3 4" opacity=".5"/><text x="793.7647058823529" y="690" fill="#c8c0ae" font-family="Inter,Arial,sans-serif" font-size="12" font-weight="600" text-anchor="end" letter-spacing="0">SIGNED TAPE FROM 13:05 CDT — earlier bars carry none</text>
<rect x="813.1" y="487.5" width="5.5" height="5.5" fill="#252b33"/><rect x="819.6" y="487.5" width="5.5" height="5.5" fill="#d4ad61"/><rect x="813.1" y="494.0" width="5.5" height="5.5" fill="#252b33"/><rect x="819.6" y="494.0" width="5.5" height="5.5" fill="#252b33"/><rect x="811.6" y="486.0" width="15.0" height="15.0" fill="none" stroke="#d4ad61" stroke-width="1.2"/>
<rect x="848.6" y="477.4" width="5.5" height="5.5" fill="#252b33"/><rect x="855.1" y="477.4" width="5.5" height="5.5" fill="#252b33"/><rect x="848.6" y="483.9" width="5.5" height="5.5" fill="#d4ad61"/><rect x="855.1" y="483.9" width="5.5" height="5.5" fill="#252b33"/><rect x="847.1" y="475.9" width="15.0" height="15.0" fill="none" stroke="#d4ad61" stroke-width="1.2"/>
<rect x="884.2" y="475.8" width="5.5" height="5.5" fill="#252b33"/><rect x="890.7" y="475.8" width="5.5" height="5.5" fill="#252b33"/><rect x="884.2" y="482.3" width="5.5" height="5.5" fill="#252b33"/><rect x="890.7" y="482.3" width="5.5" height="5.5" fill="#d4ad61"/>
<rect x="919.8" y="460.7" width="5.5" height="5.5" fill="#252b33"/><rect x="926.3" y="460.7" width="5.5" height="5.5" fill="#d4ad61"/><rect x="919.8" y="467.2" width="5.5" height="5.5" fill="#252b33"/><rect x="926.3" y="467.2" width="5.5" height="5.5" fill="#252b33"/><rect x="918.3" y="459.2" width="15.0" height="15.0" fill="none" stroke="#d4ad61" stroke-width="1.2"/>
<rect x="955.4" y="460.5" width="5.5" height="5.5" fill="#252b33"/><rect x="961.9" y="460.5" width="5.5" height="5.5" fill="#252b33"/><rect x="955.4" y="467.0" width="5.5" height="5.5" fill="#d4ad61"/><rect x="961.9" y="467.0" width="5.5" height="5.5" fill="#252b33"/><rect x="953.9" y="459.0" width="15.0" height="15.0" fill="none" stroke="#d4ad61" stroke-width="1.2"/>
<rect x="991.0" y="461.1" width="5.5" height="5.5" fill="#252b33"/><rect x="997.5" y="461.1" width="5.5" height="5.5" fill="#252b33"/><rect x="991.0" y="467.6" width="5.5" height="5.5" fill="#d4ad61"/><rect x="997.5" y="467.6" width="5.5" height="5.5" fill="#252b33"/><rect x="989.5" y="459.6" width="15.0" height="15.0" fill="none" stroke="#d4ad61" stroke-width="1.2"/>
<rect x="1026.6" y="462.2" width="5.5" height="5.5" fill="#252b33"/><rect x="1033.1" y="462.2" width="5.5" height="5.5" fill="#252b33"/><rect x="1026.6" y="468.7" width="5.5" height="5.5" fill="#d4ad61"/><rect x="1033.1" y="468.7" width="5.5" height="5.5" fill="#252b33"/><rect x="1025.1" y="460.7" width="15.0" height="15.0" fill="none" stroke="#d4ad61" stroke-width="1.2"/>
<rect x="1062.2" y="451.8" width="5.5" height="5.5" fill="#252b33"/><rect x="1068.7" y="451.8" width="5.5" height="5.5" fill="#252b33"/><rect x="1062.2" y="458.3" width="5.5" height="5.5" fill="#d4ad61"/><rect x="1068.7" y="458.3" width="5.5" height="5.5" fill="#252b33"/><rect x="1060.7" y="450.3" width="15.0" height="15.0" fill="none" stroke="#d4ad61" stroke-width="1.2"/>
<rect x="1097.8" y="440.6" width="5.5" height="5.5" fill="#252b33"/><rect x="1104.3" y="440.6" width="5.5" height="5.5" fill="#252b33"/><rect x="1097.8" y="447.1" width="5.5" height="5.5" fill="#252b33"/><rect x="1104.3" y="447.1" width="5.5" height="5.5" fill="#d4ad61"/>
<rect x="1133.4" y="443.8" width="5.5" height="5.5" fill="#252b33"/><rect x="1139.9" y="443.8" width="5.5" height="5.5" fill="#252b33"/><rect x="1133.4" y="450.3" width="5.5" height="5.5" fill="#252b33"/><rect x="1139.9" y="450.3" width="5.5" height="5.5" fill="#d4ad61"/>
<rect x="1168.9" y="456.0" width="5.5" height="5.5" fill="#d4ad61"/><rect x="1175.4" y="456.0" width="5.5" height="5.5" fill="#252b33"/><rect x="1168.9" y="462.5" width="5.5" height="5.5" fill="#252b33"/><rect x="1175.4" y="462.5" width="5.5" height="5.5" fill="#252b33"/>
<rect x="1204.5" y="459.3" width="5.5" height="5.5" fill="#252b33"/><rect x="1211.0" y="459.3" width="5.5" height="5.5" fill="#d4ad61"/><rect x="1204.5" y="465.8" width="5.5" height="5.5" fill="#252b33"/><rect x="1211.0" y="465.8" width="5.5" height="5.5" fill="#252b33"/><rect x="1203.0" y="457.8" width="15.0" height="15.0" fill="none" stroke="#d4ad61" stroke-width="1.2"/>
<rect x="1240.1" y="450.4" width="5.5" height="5.5" fill="#252b33"/><rect x="1246.6" y="450.4" width="5.5" height="5.5" fill="#d4ad61"/><rect x="1240.1" y="456.9" width="5.5" height="5.5" fill="#252b33"/><rect x="1246.6" y="456.9" width="5.5" height="5.5" fill="#252b33"/><rect x="1238.6" y="448.9" width="15.0" height="15.0" fill="none" stroke="#d4ad61" stroke-width="1.2"/>
<rect x="1275.7" y="451.2" width="5.5" height="5.5" fill="#d4ad61"/><rect x="1282.2" y="451.2" width="5.5" height="5.5" fill="#252b33"/><rect x="1275.7" y="457.7" width="5.5" height="5.5" fill="#252b33"/><rect x="1282.2" y="457.7" width="5.5" height="5.5" fill="#252b33"/>
<rect x="1360" y="196" width="170" height="520" rx="12" fill="#0f141c" stroke="#3a3b37"/>
<text x="1382" y="228" fill="#d4ad61" font-family="Inter,Arial,sans-serif" font-size="13" font-weight="750" text-anchor="start" letter-spacing="1.4"></text>
<text x="1374" y="230" fill="#d4ad61" font-family="Inter,Arial,sans-serif" font-size="12" font-weight="750" text-anchor="start" letter-spacing="1.3">KEY</text>
<text x="1374" y="258" fill="#e8e3d8" font-family="Inter,Arial,sans-serif" font-size="13" font-weight="500" text-anchor="start" letter-spacing="0">top-left: high</text>
<text x="1374" y="278" fill="#e8e3d8" font-family="Inter,Arial,sans-serif" font-size="13" font-weight="500" text-anchor="start" letter-spacing="0">effort, big move</text>
<text x="1374" y="304" fill="#e8e3d8" font-family="Inter,Arial,sans-serif" font-size="13" font-weight="500" text-anchor="start" letter-spacing="0">top-right: high</text>
<text x="1374" y="324" fill="#d4ad61" font-family="Inter,Arial,sans-serif" font-size="13" font-weight="500" text-anchor="start" letter-spacing="0">effort, SMALL move</text>
<text x="1374" y="350" fill="#e8e3d8" font-family="Inter,Arial,sans-serif" font-size="13" font-weight="500" text-anchor="start" letter-spacing="0">bottom-left: low</text>
<text x="1374" y="370" fill="#d4ad61" font-family="Inter,Arial,sans-serif" font-size="13" font-weight="500" text-anchor="start" letter-spacing="0">effort, LARGE move</text>
<text x="1374" y="396" fill="#e8e3d8" font-family="Inter,Arial,sans-serif" font-size="13" font-weight="500" text-anchor="start" letter-spacing="0">bottom-right: low</text>
<text x="1374" y="416" fill="#e8e3d8" font-family="Inter,Arial,sans-serif" font-size="13" font-weight="500" text-anchor="start" letter-spacing="0">effort, small move</text>
<text x="1374" y="452" fill="#9b9a96" font-family="Inter,Arial,sans-serif" font-size="13" font-weight="500" text-anchor="start" letter-spacing="0">gold outline =</text>
<text x="1374" y="472" fill="#9b9a96" font-family="Inter,Arial,sans-serif" font-size="13" font-weight="500" text-anchor="start" letter-spacing="0">mismatch</text>
<rect x="54" y="760" width="700" height="130" rx="12" fill="#0f141c" stroke="#3a3b37"/>
<text x="76" y="792" fill="#d4ad61" font-family="Inter,Arial,sans-serif" font-size="13" font-weight="750" text-anchor="start" letter-spacing="1.4">EVIDENCE</text>
<text x="76" y="824" fill="#e8e3d8" font-family="Inter,Arial,sans-serif" font-size="15" font-weight="500" text-anchor="start" letter-spacing="0">effort = signed aggressive volume (OBSERVED tape)</text>
<text x="76" y="850" fill="#e8e3d8" font-family="Inter,Arial,sans-serif" font-size="15" font-weight="500" text-anchor="start" letter-spacing="0">response = bar displacement vs contextual expectation (DERIVED)</text>
<text x="76" y="876" fill="#e8e3d8" font-family="Inter,Arial,sans-serif" font-size="15" font-weight="500" text-anchor="start" letter-spacing="0">OHLC-only bars draw no glyph · receipt NO_SIGNED_EFFORT</text>
<rect x="774" y="760" width="772" height="130" rx="12" fill="#0f141c" stroke="#3a3b37"/>
<text x="796" y="792" fill="#d4ad61" font-family="Inter,Arial,sans-serif" font-size="13" font-weight="750" text-anchor="start" letter-spacing="1.4">FORBIDDEN</text>
<text x="796" y="824" fill="#e8e3d8" font-family="Inter,Arial,sans-serif" font-size="15" font-weight="500" text-anchor="start" letter-spacing="0">ranking bars as buy/sell signals</text>
<text x="796" y="850" fill="#e8e3d8" font-family="Inter,Arial,sans-serif" font-size="15" font-weight="500" text-anchor="start" letter-spacing="0">inventing effort from price or candle colour</text>
<text x="796" y="876" fill="#e8e3d8" font-family="Inter,Arial,sans-serif" font-size="15" font-weight="500" text-anchor="start" letter-spacing="0">a rail card substituting for the canvas glyph</text>
<path d="M54 905H1546" stroke="#4a4030"/>
<text x="54" y="935" fill="#d4ad61" font-family="Inter,Arial,sans-serif" font-size="13" font-weight="750" text-anchor="start" letter-spacing="1.2">ATH MARKET INSTRUMENTS  ·  PRICE REMAINS SOVEREIGN  ·  EVIDENCE STATE VISIBLE  ·  PROPOSED UNTIL FOUNDER CANON ACCEPTANCE</text>
<text x="54" y="962" fill="#9b9a96" font-family="Inter,Arial,sans-serif" font-size="14" font-weight="400" text-anchor="start" letter-spacing="0">Schematic. Coverage = bars with captured signed tape; the shared tape-coverage boundary (4fc0435) marks where it begins.</text>
<text x="54" y="984" fill="#9b9a96" font-family="Inter,Arial,sans-serif" font-size="14" font-weight="400" text-anchor="start" letter-spacing="0">Today: rail card only (census PANEL_ONLY). Acceptance unlocks the renderer.</text>
</svg>